Metropolis-Regular.ufo
<glyph name="dollar" format="1">
  <advance width="613"/>
  <unicode hex="0024"/>
  <outline>
    <contour>
      <point x="342" y="-74" type="line"/>
      <point x="342" y="13" type="line"/>
      <point x="342" y="33" type="line"/>
      <point x="342" y="654" type="line"/>
      <point x="342" y="674" type="line"/>
      <point x="342" y="759" type="line"/>
      <point x="264" y="759" type="line"/>
      <point x="264" y="674" type="line"/>
      <point x="264" y="654" type="line"/>
      <point x="264" y="33" type="line"/>
      <point x="264" y="13" type="line"/>
      <point x="264" y="-74" type="line"/>
    </contour>
    <component base="S"/>
  </outline>
</glyph>
<glyph name="ampersand" format="1">
  <advance width="670"/>
  <unicode hex="0026"/>
  <outline>
    <contour>
      <point x="341" y="-11"/>
      <point x="409" y="26"/>
      <point x="465" y="85" type="curve"/>
      <point x="557" y="-7" type="line"/>
      <point x="628" y="26" type="line"/>
      <point x="513" y="142" type="line"/>
      <point x="552" y="195"/>
      <point x="582" y="256"/>
      <point x="609" y="316" type="curve"/>
      <point x="544" y="345" type="line"/>
      <point x="526" y="298"/>
      <point x="500" y="241"/>
      <point x="466" y="191" type="curve"/>
      <point x="439" y="219"/>
      <point x="412" y="249"/>
      <point x="384" y="279" type="curve" smooth="yes"/>
      <point x="360" y="304"/>
      <point x="334" y="334"/>
      <point x="308" y="364" type="curve"/>
      <point x="406" y="406"/>
      <point x="475" y="458"/>
      <point x="475" y="550" type="curve" smooth="yes"/>
      <point x="475" y="636"/>
      <point x="407" y="695"/>
      <point x="315" y="695" type="curve" smooth="yes"/>
      <point x="212" y="695"/>
      <point x="139" y="625"/>
      <point x="139" y="535" type="curve" smooth="yes"/>
      <point x="139" y="484"/>
      <point x="159" y="437"/>
      <point x="199" y="382" type="curve"/>
      <point x="107" y="340"/>
      <point x="41" y="280"/>
      <point x="41" y="181" type="curve" smooth="yes"/>
      <point x="41" y="61"/>
      <point x="133" y="-11"/>
      <point x="255" y="-11" type="curve" smooth="yes"/>
    </contour>
    <contour>
      <point x="184" y="54"/>
      <point x="121" y="104"/>
      <point x="121" y="185" type="curve" smooth="yes"/>
      <point x="121" y="249"/>
      <point x="163" y="298"/>
      <point x="238" y="332" type="curve"/>
      <point x="266" y="298"/>
      <point x="295" y="265"/>
      <point x="324" y="233" type="curve" smooth="yes"/>
      <point x="350" y="205"/>
      <point x="383" y="169"/>
      <point x="419" y="132" type="curve"/>
      <point x="374" y="85"/>
      <point x="322" y="54"/>
      <point x="262" y="54" type="curve" smooth="yes"/>
    </contour>
    <contour>
      <point x="232" y="459"/>
      <point x="215" y="495"/>
      <point x="215" y="533" type="curve" smooth="yes"/>
      <point x="215" y="592"/>
      <point x="258" y="633"/>
      <point x="315" y="633" type="curve" smooth="yes"/>
      <point x="366" y="633"/>
      <point x="404" y="599"/>
      <point x="404" y="546" type="curve" smooth="yes"/>
      <point x="404" y="482"/>
      <point x="350" y="443"/>
      <point x="270" y="411" type="curve"/>
    </contour>
  </outline>
</glyph>
<glyph name="quotesingle" format="1">
  <advance width="234"/>
  <unicode hex="0027"/>
  <outline>
    <contour>
      <point x="139" y="429" type="line"/>
      <point x="147" y="487"/>
      <point x="163" y="579"/>
      <point x="163" y="629" type="curve" smooth="yes"/>
      <point x="163" y="654"/>
      <point x="142" y="675"/>
      <point x="117" y="675" type="curve" smooth="yes"/>
      <point x="92" y="675"/>
      <point x="71" y="654"/>
      <point x="71" y="629" type="curve" smooth="yes"/>
      <point x="71" y="579"/>
      <point x="87" y="487"/>
      <point x="95" y="429" type="curve"/>
    </contour>
  </outline>
</glyph>
<glyph name="asterisk" format="1">
  <advance width="409"/>
  <unicode hex="002A"/>
  <outline>
    <contour>
      <point x="218" y="376"/>
      <point x="229" y="386"/>
      <point x="229" y="398" type="curve" smooth="yes"/>
      <point x="229" y="440"/>
      <point x="218" y="481"/>
      <point x="213" y="523" type="curve"/>
      <point x="247" y="498"/>
      <point x="277" y="468"/>
      <point x="313" y="447" type="curve" smooth="yes"/>
      <point x="323" y="441"/>
      <point x="338" y="446"/>
      <point x="345" y="458" type="curve" smooth="yes"/>
      <point x="352" y="470"/>
      <point x="348" y="484"/>
      <point x="338" y="490" type="curve" smooth="yes"/>
      <point x="302" y="511"/>
      <point x="261" y="522"/>
      <point x="222" y="539" type="curve"/>
      <point x="261" y="556"/>
      <point x="302" y="567"/>
      <point x="338" y="588" type="curve" smooth="yes"/>
      <point x="348" y="594"/>
      <point x="352" y="608"/>
      <point x="345" y="620" type="curve" smooth="yes"/>
      <point x="338" y="632"/>
      <point x="323" y="637"/>
      <point x="313" y="631" type="curve" smooth="yes"/>
      <point x="277" y="610"/>
      <point x="247" y="580"/>
      <point x="213" y="555" type="curve"/>
      <point x="218" y="597"/>
      <point x="229" y="638"/>
      <point x="229" y="680" type="curve" smooth="yes"/>
      <point x="229" y="692"/>
      <point x="218" y="702"/>
      <point x="204" y="702" type="curve" smooth="yes"/>
      <point x="190" y="702"/>
      <point x="179" y="692"/>
      <point x="179" y="680" type="curve" smooth="yes"/>
      <point x="179" y="638"/>
      <point x="190" y="597"/>
      <point x="195" y="555" type="curve"/>
      <point x="161" y="580"/>
      <point x="131" y="610"/>
      <point x="95" y="631" type="curve" smooth="yes"/>
      <point x="85" y="637"/>
      <point x="70" y="632"/>
      <point x="63" y="620" type="curve" smooth="yes"/>
      <point x="56" y="608"/>
      <point x="60" y="594"/>
      <point x="70" y="588" type="curve" smooth="yes"/>
      <point x="106" y="567"/>
      <point x="147" y="556"/>
      <point x="186" y="539" type="curve"/>
      <point x="147" y="522"/>
      <point x="106" y="511"/>
      <point x="70" y="490" type="curve" smooth="yes"/>
      <point x="60" y="484"/>
      <point x="56" y="470"/>
      <point x="63" y="458" type="curve" smooth="yes"/>
      <point x="70" y="446"/>
      <point x="85" y="441"/>
      <point x="95" y="447" type="curve" smooth="yes"/>
      <point x="131" y="468"/>
      <point x="161" y="498"/>
      <point x="195" y="523" type="curve"/>
      <point x="190" y="481"/>
      <point x="179" y="440"/>
      <point x="179" y="398" type="curve" smooth="yes"/>
      <point x="179" y="386"/>
      <point x="190" y="376"/>
      <point x="204" y="376" type="curve" smooth="yes"/>
    </contour>
  </outline>
</glyph>
<glyph name="comma" format="1">
  <advance width="264"/>
  <unicode hex="002C"/>
  <outline>
    <contour>
      <point x="160" y="-99"/>
      <point x="193" y="-49"/>
      <point x="193" y="11" type="curve" smooth="yes"/>
      <point x="193" y="64"/>
      <point x="168" y="96"/>
      <point x="133" y="96" type="curve" smooth="yes"/>
      <point x="103" y="96"/>
      <point x="77" y="71"/>
      <point x="77" y="42" type="curve" smooth="yes"/>
      <point x="77" y="12"/>
      <point x="100" y="-1"/>
      <point x="116" y="-15" type="curve" smooth="yes"/>
      <point x="125" y="-22"/>
      <point x="129" y="-31"/>
      <point x="129" y="-40" type="curve" smooth="yes"/>
      <point x="129" y="-60"/>
      <point x="110" y="-83"/>
      <point x="72" y="-102" type="curve"/>
      <point x="97" y="-135" type="line"/>
    </contour>
  </outline>
</glyph>
<glyph name="slash" format="1">
  <advance width="415"/>
  <unicode hex="002F"/>
  <outline>
    <contour>
      <point x="69" y="-74" type="line"/>
      <point x="420" y="743" type="line"/>
      <point x="335" y="743" type="line"/>
      <point x="-16" y="-74" type="line"/>
    </contour>
  </outline>
</glyph>
<glyph name="one" format="1">
  <advance width="353"/>
  <unicode hex="0031"/>
  <outline>
    <contour>
      <point x="258" y="0" type="line"/>
      <point x="258" y="687" type="line"/>
      <point x="195" y="687" type="line"/>
      <point x="26" y="572" type="line"/>
      <point x="60" y="514" type="line"/>
      <point x="180" y="592" type="line"/>
      <point x="180" y="0" type="line"/>
    </contour>
  </outline>
</glyph>
<glyph name="five" format="1">
  <advance width="599"/>
  <unicode hex="0035"/>
  <outline>
    <contour>
      <point x="439" y="-12"/>
      <point x="542" y="78"/>
      <point x="542" y="214" type="curve" smooth="yes"/>
      <point x="542" y="350"/>
      <point x="439" y="428"/>
      <point x="315" y="428" type="curve" smooth="yes"/>
      <point x="252" y="428"/>
      <point x="205" y="407"/>
      <point x="168" y="382" type="curve"/>
      <point x="175" y="613" type="line"/>
      <point x="505" y="613" type="line"/>
      <point x="505" y="687" type="line"/>
      <point x="99" y="687" type="line"/>
      <point x="89" y="334" type="line"/>
      <point x="146" y="306" type="line"/>
      <point x="189" y="338"/>
      <point x="240" y="359"/>
      <point x="299" y="359" type="curve" smooth="yes"/>
      <point x="395" y="359"/>
      <point x="463" y="299"/>
      <point x="463" y="211" type="curve" smooth="yes"/>
      <point x="463" y="124"/>
      <point x="396" y="58"/>
      <point x="301" y="58" type="curve" smooth="yes"/>
      <point x="225" y="58"/>
      <point x="160" y="96"/>
      <point x="107" y="154" type="curve"/>
      <point x="56" y="97" type="line"/>
      <point x="112" y="33"/>
      <point x="192" y="-12"/>
      <point x="298" y="-12" type="curve" smooth="yes"/>
    </contour>
  </outline>
</glyph>
<glyph name="six" format="1">
  <advance width="623"/>
  <unicode hex="0036"/>
  <outline>
    <contour>
      <point x="464" y="-12"/>
      <point x="563" y="88"/>
      <point x="563" y="215" type="curve" smooth="yes"/>
      <point x="563" y="351"/>
      <point x="458" y="429"/>
      <point x="333" y="429" type="curve" smooth="yes"/>
      <point x="239" y="429"/>
      <point x="173" y="374"/>
      <point x="139" y="323" type="curve"/>
      <point x="139" y="495"/>
      <point x="206" y="628"/>
      <point x="336" y="628" type="curve" smooth="yes"/>
      <point x="402" y="628"/>
      <point x="447" y="598"/>
      <point x="490" y="556" type="curve"/>
      <point x="533" y="617" type="line"/>
      <point x="482" y="666"/>
      <point x="422" y="699"/>
      <point x="338" y="699" type="curve" smooth="yes"/>
      <point x="152" y="699"/>
      <point x="59" y="529"/>
      <point x="59" y="333" type="curve" smooth="yes"/>
      <point x="59" y="139"/>
      <point x="135" y="-12"/>
      <point x="321" y="-12" type="curve" smooth="yes"/>
    </contour>
    <contour>
      <point x="210" y="55"/>
      <point x="151" y="146"/>
      <point x="148" y="232" type="curve"/>
      <point x="166" y="304"/>
      <point x="236" y="362"/>
      <point x="319" y="362" type="curve" smooth="yes"/>
      <point x="411" y="362"/>
      <point x="484" y="305"/>
      <point x="484" y="211" type="curve" smooth="yes"/>
      <point x="484" y="135"/>
      <point x="423" y="55"/>
      <point x="320" y="55" type="curve" smooth="yes"/>
    </contour>
  </outline>
</glyph>
<glyph name="seven" format="1">
  <advance width="600"/>
  <unicode hex="0037"/>
  <outline>
    <contour>
      <point x="228" y="0" type="line"/>
      <point x="524" y="628" type="line"/>
      <point x="524" y="687" type="line"/>
      <point x="59" y="687" type="line"/>
      <point x="59" y="613" type="line"/>
      <point x="431" y="613" type="line"/>
      <point x="138" y="0" type="line"/>
    </contour>
  </outline>
</glyph>
<glyph name="nine" format="1">
  <advance width="623"/>
  <unicode hex="0039"/>
  <outline>
    <contour>
      <point x="471" y="-12"/>
      <point x="564" y="158"/>
      <point x="564" y="354" type="curve" smooth="yes"/>
      <point x="564" y="548"/>
      <point x="488" y="699"/>
      <point x="302" y="699" type="curve" smooth="yes"/>
      <point x="159" y="699"/>
      <point x="60" y="599"/>
      <point x="60" y="472" type="curve" smooth="yes"/>
      <point x="60" y="336"/>
      <point x="165" y="258"/>
      <point x="290" y="258" type="curve" smooth="yes"/>
      <point x="384" y="258"/>
      <point x="450" y="313"/>
      <point x="484" y="364" type="curve"/>
      <point x="484" y="192"/>
      <point x="417" y="59"/>
      <point x="287" y="59" type="curve" smooth="yes"/>
      <point x="221" y="59"/>
      <point x="176" y="89"/>
      <point x="133" y="131" type="curve"/>
      <point x="90" y="70" type="line"/>
      <point x="141" y="21"/>
      <point x="201" y="-12"/>
      <point x="285" y="-12" type="curve" smooth="yes"/>
    </contour>
    <contour>
      <point x="212" y="325"/>
      <point x="139" y="382"/>
      <point x="139" y="476" type="curve" smooth="yes"/>
      <point x="139" y="552"/>
      <point x="200" y="632"/>
      <point x="303" y="632" type="curve" smooth="yes"/>
      <point x="413" y="632"/>
      <point x="472" y="541"/>
      <point x="475" y="455" type="curve"/>
      <point x="457" y="383"/>
      <point x="387" y="325"/>
      <point x="304" y="325" type="curve" smooth="yes"/>
    </contour>
  </outline>
</glyph>
<glyph name="less" format="1">
  <advance width="586"/>
  <unicode hex="003C"/>
  <outline>
    <contour>
      <point x="510" y="159" type="line"/>
      <point x="129" y="344" type="line"/>
      <point x="510" y="529" type="line"/>
      <point x="510" y="599" type="line"/>
      <point x="55" y="373" type="line"/>
      <point x="55" y="314" type="line"/>
      <point x="510" y="88" type="line"/>
    </contour>
  </outline>
</glyph>
<glyph name="equal" format="1">
  <advance width="593"/>
  <unicode hex="003D"/>
  <outline>
    <contour>
      <point x="526" y="407" type="line"/>
      <point x="526" y="481" type="line"/>
      <point x="67" y="481" type="line"/>
      <point x="67" y="407" type="line"/>
    </contour>
    <contour>
      <point x="526" y="187" type="line"/>
      <point x="526" y="261" type="line"/>
      <point x="67" y="261" type="line"/>
      <point x="67" y="187" type="line"/>
    </contour>
  </outline>
</glyph>
<glyph name="A" format="1">
  <advance width="755"/>
  <unicode hex="0041"/>
  <outline>
    <contour>
      <point x="591" y="176" type="line"/>
      <point x="591" y="250" type="line"/>
      <point x="172" y="250" type="line"/>
      <point x="172" y="176" type="line"/>
    </contour>
    <component base="V" xOffset="755" yOffset="687" xScale="-1" yScale="-1"/>
  </outline>
</glyph>
<glyph name="E" format="1">
  <advance width="627"/>
  <unicode hex="0045"/>
  <outline>
    <contour>
      <point x="572" y="0" type="line"/>
      <point x="572" y="74" type="line"/>
      <point x="138" y="74" type="line"/>
      <point x="158" y="54" type="line"/>
      <point x="158" y="333" type="line"/>
      <point x="138" y="313" type="line"/>
      <point x="531" y="313" type="line"/>
      <point x="531" y="387" type="line"/>
      <point x="138" y="387" type="line"/>
      <point x="158" y="367" type="line"/>
      <point x="158" y="633" type="line"/>
      <point x="138" y="613" type="line"/>
      <point x="572" y="613" type="line"/>
      <point x="572" y="687" type="line"/>
      <point x="79" y="687" type="line"/>
      <point x="79" y="0" type="line"/>
    </contour>
    <contour>
      <point x="326" y="687" type="move" name="top"/>
    </contour>
    <contour>
      <point x="368" y="0" type="move" name="bottom"/>
    </contour>
  </outline>
</glyph>
<glyph name="I" format="1">
  <advance width="236"/>
  <unicode hex="0049"/>
  <outline>
    <contour>
      <point x="157" y="0" type="line"/>
      <point x="157" y="687" type="line"/>
      <point x="79" y="687" type="line"/>
      <point x="79" y="0" type="line"/>
    </contour>
  </outline>
</glyph>
<glyph name="J" format="1">
  <advance width="540"/>
  <unicode hex="004A"/>
  <outline>
    <contour>
      <point x="364" y="-12"/>
      <point x="454" y="86"/>
      <point x="454" y="224" type="curve" smooth="yes"/>
      <point x="454" y="687" type="line"/>
      <point x="376" y="687" type="line"/>
      <point x="376" y="224" type="line" smooth="yes"/>
      <point x="376" y="127"/>
      <point x="318" y="59"/>
      <point x="237" y="59" type="curve" smooth="yes"/>
      <point x="174" y="59"/>
      <point x="110" y="100"/>
      <point x="83" y="158" type="curve"/>
      <point x="26" y="102" type="line"/>
      <point x="68" y="35"/>
      <point x="156" y="-12"/>
      <point x="237" y="-12" type="curve" smooth="yes"/>
    </contour>
  </outline>
</glyph>
<glyph name="L" format="1">
  <advance width="555"/>
  <unicode hex="004C"/>
  <outline>
    <contour>
      <point x="521" y="0" type="line"/>
      <point x="521" y="74" type="line"/>
      <point x="123" y="74" type="line"/>
      <point x="146" y="50" type="line"/>
      <point x="146" y="687" type="line"/>
      <point x="68" y="687" type="line"/>
      <point x="68" y="0" type="line"/>
    </contour>
    <contour>
      <point x="158" y="687" type="move" name="top"/>
    </contour>
  </outline>
</glyph>
<glyph name="N" format="1">
  <advance width="770"/>
  <unicode hex="004E"/>
  <outline>
    <contour>
      <point x="172" y="0" type="line"/>
      <point x="172" y="559" type="line"/>
      <point x="598" y="0" type="line"/>
      <point x="676" y="0" type="line"/>
      <point x="676" y="687" type="line"/>
      <point x="598" y="687" type="line"/>
      <point x="598" y="128" type="line"/>
      <point x="172" y="687" type="line"/>
      <point x="94" y="687" type="line"/>
      <point x="94" y="0" type="line"/>
    </contour>
  </outline>
</glyph>
<glyph name="O" format="1">
  <advance width="807"/>
  <unicode hex="004F"/>
  <outline>
    <contour>
      <point x="595" y="-12"/>
      <point x="755" y="151"/>
      <point x="755" y="344" type="curve" smooth="yes"/>
      <point x="755" y="537"/>
      <point x="595" y="699"/>
      <point x="404" y="699" type="curve" smooth="yes"/>
      <point x="214" y="699"/>
      <point x="52" y="537"/>
      <point x="52" y="344" type="curve" smooth="yes"/>
      <point x="52" y="151"/>
      <point x="214" y="-12"/>
      <point x="404" y="-12" type="curve" smooth="yes"/>
    </contour>
    <contour>
      <point x="256" y="60"/>
      <point x="131" y="190"/>
      <point x="131" y="344" type="curve" smooth="yes"/>
      <point x="131" y="497"/>
      <point x="256" y="627"/>
      <point x="404" y="627" type="curve" smooth="yes"/>
      <point x="552" y="627"/>
      <point x="676" y="497"/>
      <point x="676" y="344" type="curve" smooth="yes"/>
      <point x="676" y="190"/>
      <point x="552" y="60"/>
      <point x="404" y="60" type="curve" smooth="yes"/>
    </contour>
    <contour>
      <point x="404" y="687" type="move" name="top"/>
    </contour>
  </outline>
</glyph>
<glyph name="R" format="1">
  <advance width="650"/>
  <unicode hex="0052"/>
  <outline>
    <contour>
      <point x="602" y="0" type="line"/>
      <point x="413" y="269" type="line"/>
      <point x="324" y="269" type="line"/>
      <point x="513" y="0" type="line"/>
    </contour>
    <component base="P"/>
  </outline>
</glyph>
<glyph name="T" format="1">
  <advance width="630"/>
  <unicode hex="0054"/>
  <outline>
    <contour>
      <point x="354" y="0" type="line"/>
      <point x="354" y="613" type="line"/>
      <point x="585" y="613" type="line"/>
      <point x="585" y="687" type="line"/>
      <point x="45" y="687" type="line"/>
      <point x="45" y="613" type="line"/>
      <point x="276" y="613" type="line"/>
      <point x="276" y="0" type="line"/>
    </contour>
  </outline>
</glyph>
<glyph name="U" format="1">
  <advance width="746"/>
  <unicode hex="0055"/>
  <outline>
    <contour>
      <point x="541" y="-12"/>
      <point x="660" y="111"/>
      <point x="660" y="285" type="curve"/>
      <point x="660" y="687" type="line"/>
      <point x="582" y="687" type="line"/>
      <point x="582" y="285" type="line"/>
      <point x="582" y="153"/>
      <point x="495" y="59"/>
      <point x="373" y="59" type="curve"/>
      <point x="251" y="59"/>
      <point x="164" y="153"/>
      <point x="164" y="285" type="curve"/>
      <point x="164" y="687" type="line"/>
      <point x="86" y="687" type="line"/>
      <point x="86" y="285" type="line"/>
      <point x="86" y="111"/>
      <point x="205" y="-12"/>
      <point x="373" y="-12" type="curve"/>
    </contour>
    <contour>
      <point x="373" y="687" type="move" name="top"/>
    </contour>
  </outline>
</glyph>
<glyph name="W" format="1">
  <advance width="1081"/>
  <unicode hex="0057"/>
  <outline>
    <contour>
      <point x="349" y="0" type="line"/>
      <point x="541" y="585" type="line"/>
      <point x="732" y="0" type="line"/>
      <point x="809" y="0" type="line"/>
      <point x="1044" y="687" type="line"/>
      <point x="956" y="687" type="line"/>
      <point x="766" y="131" type="line"/>
      <point x="584" y="687" type="line"/>
      <point x="497" y="687" type="line"/>
      <point x="315" y="131" type="line"/>
      <point x="125" y="687" type="line"/>
      <point x="37" y="687" type="line"/>
      <point x="272" y="0" type="line"/>
    </contour>
    <contour>
      <point x="541" y="687" type="move" name="top"/>
    </contour>
  </outline>
</glyph>
<glyph name="Z" format="1">
  <advance width="639"/>
  <unicode hex="005A"/>
  <outline>
    <contour>
      <point x="583" y="0" type="line"/>
      <point x="583" y="74" type="line"/>
      <point x="164" y="74" type="line"/>
      <point x="579" y="625" type="line"/>
      <point x="579" y="687" type="line"/>
      <point x="65" y="687" type="line"/>
      <point x="65" y="613" type="line"/>
      <point x="472" y="613" type="line"/>
      <point x="58" y="62" type="line"/>
      <point x="58" y="0" type="line"/>
    </contour>
  </outline>
</glyph>
<glyph name="backslash" format="1">
  <advance width="415"/>
  <unicode hex="005C"/>
  <outline>
    <contour>
      <point x="431" y="-74" type="line"/>
      <point x="80" y="743" type="line"/>
      <point x="-5" y="743" type="line"/>
      <point x="346" y="-74" type="line"/>
    </contour>
  </outline>
</glyph>
<glyph name="bracketright" format="1">
  <advance width="366"/>
  <unicode hex="005D"/>
  <outline>
    <contour>
      <point x="285" y="-115" type="line"/>
      <point x="285" y="734" type="line"/>
      <point x="49" y="734" type="line"/>
      <point x="49" y="677" type="line"/>
      <point x="219" y="677" type="line"/>
      <point x="219" y="-58" type="line"/>
      <point x="49" y="-58" type="line"/>
      <point x="49" y="-115" type="line"/>
    </contour>
  </outline>
</glyph>
<glyph name="asciicircum" format="1">
  <advance width="490"/>
  <unicode hex="005E"/>
  <outline>
    <contour>
      <point x="118" y="413" type="line"/>
      <point x="245" y="632" type="line"/>
      <point x="371" y="413" type="line"/>
      <point x="436" y="413" type="line"/>
      <point x="275" y="687" type="line"/>
      <point x="216" y="687" type="line"/>
      <point x="54" y="413" type="line"/>
    </contour>
  </outline>
</glyph>
<glyph name="b" format="1">
  <advance width="638"/>
  <unicode hex="0062"/>
  <outline>
    <contour>
      <point x="158" y="1" type="line"/>
      <point x="158" y="699" type="line"/>
      <point x="83" y="699" type="line"/>
      <point x="83" y="1" type="line"/>
    </contour>
    <component base="lowercase_loop" xOffset="30"/>
  </outline>
</glyph>
<glyph name="d" format="1">
  <advance width="638"/>
  <unicode hex="0064"/>
  <outline>
    <contour>
      <point x="555" y="1" type="line"/>
      <point x="555" y="699" type="line"/>
      <point x="480" y="699" type="line"/>
      <point x="480" y="1" type="line"/>
    </contour>
    <component base="lowercase_loop" xOffset="608" xScale="-1"/>
  </outline>
</glyph>
<glyph name="e" format="1">
  <advance width="595"/>
  <unicode hex="0065"/>
  <outline>
    <contour>
      <point x="382" y="-12"/>
      <point x="473" y="19"/>
      <point x="518" y="68" type="curve"/>
      <point x="472" y="117" type="line"/>
      <point x="440" y="82"/>
      <point x="370" y="55"/>
      <point x="309" y="55" type="curve" smooth="yes"/>
      <point x="197" y="55"/>
      <point x="123" y="144"/>
      <point x="123" y="260" type="curve" smooth="yes"/>
      <point x="123" y="380"/>
      <point x="203" y="462"/>
      <point x="306" y="462" type="curve" smooth="yes"/>
      <point x="419" y="462"/>
      <point x="475" y="374"/>
      <point x="475" y="268" type="curve"/>
      <point x="518" y="297" type="line"/>
      <point x="99" y="297" type="line"/>
      <point x="99" y="230" type="line"/>
      <point x="548" y="230" type="line"/>
      <point x="548" y="411"/>
      <point x="459" y="529"/>
      <point x="303" y="529" type="curve" smooth="yes"/>
      <point x="164" y="529"/>
      <point x="48" y="414"/>
      <point x="48" y="260" type="curve" smooth="yes"/>
      <point x="48" y="101"/>
      <point x="172" y="-12"/>
      <point x="310" y="-12" type="curve" smooth="yes"/>
    </contour>
    <contour>
      <point x="303" y="517" type="move" name="top"/>
    </contour>
  </outline>
</glyph>
<glyph name="f" format="1">
  <advance width="351"/>
  <unicode hex="0066"/>
  <outline>
    <contour>
      <point x="193" y="0" type="line"/>
      <point x="193" y="588" type="line" smooth="yes"/>
      <point x="193" y="626"/>
      <point x="219" y="653"/>
      <point x="249" y="653" type="curve" smooth="yes"/>
      <point x="272" y="653"/>
      <point x="292" y="644"/>
      <point x="303" y="632" type="curve"/>
      <point x="340" y="687" type="line"/>
      <point x="313" y="708"/>
      <point x="279" y="720"/>
      <point x="244" y="720" type="curve" smooth="yes"/>
      <point x="170" y="720"/>
      <point x="118" y="665"/>
      <point x="118" y="588" type="curve" smooth="yes"/>
      <point x="118" y="0" type="line"/>
    </contour>
    <contour>
      <point x="320" y="450" type="line"/>
      <point x="320" y="517" type="line"/>
      <point x="37" y="517" type="line"/>
      <point x="37" y="450" type="line"/>
    </contour>
  </outline>
</glyph>
<glyph name="h" format="1">
  <advance width="592"/>
  <unicode hex="0068"/>
  <outline>
    <contour>
      <point x="152" y="0" type="line"/>
      <point x="152" y="699" type="line"/>
      <point x="77" y="699" type="line"/>
      <point x="77" y="0" type="line"/>
    </contour>
    <component base="lowercase_nh_shoulder"/>
  </outline>
</glyph>
<glyph name="i" format="1">
  <advance width="225"/>
  <unicode hex="0069"/>
  <outline>
    <contour>
      <point x="140" y="611"/>
      <point x="162" y="634"/>
      <point x="162" y="661" type="curve" smooth="yes"/>
      <point x="162" y="687"/>
      <point x="140" y="710"/>
      <point x="113" y="710" type="curve" smooth="yes"/>
      <point x="85" y="710"/>
      <point x="63" y="687"/>
      <point x="63" y="661" type="curve" smooth="yes"/>
      <point x="63" y="634"/>
      <point x="85" y="611"/>
      <point x="113" y="611" type="curve" smooth="yes"/>
    </contour>
    <component base="idotless"/>
    <contour>
      <point x="150" y="0" type="move" name="onogek"/>
    </contour>
    <contour>
      <point x="113" y="0" type="move" name="bottom"/>
    </contour>
  </outline>
</glyph>
<glyph name="k" format="1">
  <advance width="543"/>
  <unicode hex="006B"/>
  <outline>
    <contour>
      <point x="150" y="0" type="line"/>
      <point x="150" y="137" type="line"/>
      <point x="243" y="229" type="line"/>
      <point x="422" y="0" type="line"/>
      <point x="516" y="0" type="line"/>
      <point x="296" y="280" type="line"/>
      <point x="529" y="517" type="line"/>
      <point x="433" y="517" type="line"/>
      <point x="150" y="231" type="line"/>
      <point x="150" y="699" type="line"/>
      <point x="75" y="699" type="line"/>
      <point x="75" y="0" type="line"/>
    </contour>
  </outline>
</glyph>
<glyph name="l" format="1">
  <advance width="227"/>
  <unicode hex="006C"/>
  <outline>
    <contour>
      <point x="151" y="0" type="line"/>
      <point x="151" y="699" type="line"/>
      <point x="76" y="699" type="line"/>
      <point x="76" y="0" type="line"/>
    </contour>
    <contour>
      <point x="165" y="699" type="move" name="top"/>
    </contour>
    <contour>
      <point x="151" y="0" type="move" name="bottom"/>
    </contour>
  </outline>
</glyph>
<glyph name="m" format="1">
  <advance width="895"/>
  <unicode hex="006D"/>
  <outline>
    <contour>
      <point x="819" y="0" type="line"/>
      <point x="819" y="329" type="line" smooth="yes"/>
      <point x="819" y="446"/>
      <point x="743" y="529"/>
      <point x="635" y="529" type="curve" smooth="yes"/>
      <point x="543" y="529"/>
      <point x="466" y="469"/>
      <point x="461" y="381" type="curve"/>
      <point x="485" y="329" type="line"/>
      <point x="485" y="407"/>
      <point x="543" y="462"/>
      <point x="625" y="462" type="curve" smooth="yes"/>
      <point x="695" y="462"/>
      <point x="744" y="403"/>
      <point x="744" y="319" type="curve" smooth="yes"/>
      <point x="744" y="0" type="line"/>
    </contour>
    <contour>
      <point x="485" y="0" type="line"/>
      <point x="485" y="329" type="line" smooth="yes"/>
      <point x="485" y="446"/>
      <point x="409" y="529"/>
      <point x="301" y="529" type="curve" smooth="yes"/>
      <point x="209" y="529"/>
      <point x="140" y="467"/>
      <point x="135" y="379" type="curve"/>
      <point x="151" y="329" type="line"/>
      <point x="151" y="407"/>
      <point x="209" y="462"/>
      <point x="291" y="462" type="curve" smooth="yes"/>
      <point x="361" y="462"/>
      <point x="410" y="403"/>
      <point x="410" y="319" type="curve" smooth="yes"/>
      <point x="410" y="0" type="line"/>
    </contour>
    <component base="idotless" xOffset="1"/>
  </outline>
</glyph>
<glyph name="n" format="1">
  <advance width="592"/>
  <unicode hex="006E"/>
  <outline>
    <contour>
      <point x="152" y="0" type="line"/>
      <point x="152" y="517" type="line"/>
      <point x="77" y="517" type="line"/>
      <point x="77" y="0" type="line"/>
    </contour>
    <component base="lowercase_nh_shoulder"/>
    <contour>
      <point x="313" y="517" type="move" name="top"/>
    </contour>
  </outline>
</glyph>
<glyph name="p" format="1">
  <advance width="638"/>
  <unicode hex="0070"/>
  <outline>
    <contour>
      <point x="158" y="-172" type="line"/>
      <point x="158" y="517" type="line"/>
      <point x="83" y="517" type="line"/>
      <point x="83" y="-172" type="line"/>
    </contour>
    <component base="lowercase_loop" xOffset="30"/>
  </outline>
</glyph>
<glyph name="q" format="1">
  <advance width="638"/>
  <unicode hex="0071"/>
  <outline>
    <contour>
      <point x="555" y="-172" type="line"/>
      <point x="555" y="517" type="line"/>
      <point x="480" y="517" type="line"/>
      <point x="480" y="-172" type="line"/>
    </contour>
    <component base="lowercase_loop" xOffset="608" xScale="-1"/>
  </outline>
</glyph>
<glyph name="s" format="1">
  <advance width="496"/>
  <unicode hex="0073"/>
  <outline>
    <contour>
      <point x="366" y="-12"/>
      <point x="448" y="49"/>
      <point x="448" y="144" type="curve" smooth="yes"/>
      <point x="448" y="242"/>
      <point x="362" y="270"/>
      <point x="279" y="296" type="curve" smooth="yes"/>
      <point x="183" y="327"/>
      <point x="145" y="341"/>
      <point x="145" y="386" type="curve" smooth="yes"/>
      <point x="145" y="436"/>
      <point x="193" y="462"/>
      <point x="251" y="462" type="curve" smooth="yes"/>
      <point x="297" y="462"/>
      <point x="348" y="446"/>
      <point x="400" y="413" type="curve"/>
      <point x="436" y="471" type="line"/>
      <point x="381" y="507"/>
      <point x="315" y="529"/>
      <point x="251" y="529" type="curve" smooth="yes"/>
      <point x="148" y="529"/>
      <point x="70" y="471"/>
      <point x="70" y="377" type="curve" smooth="yes"/>
      <point x="70" y="303"/>
      <point x="118" y="266"/>
      <point x="243" y="230" type="curve" smooth="yes"/>
      <point x="313" y="210"/>
      <point x="373" y="192"/>
      <point x="373" y="136" type="curve" smooth="yes"/>
      <point x="373" y="87"/>
      <point x="327" y="55"/>
      <point x="259" y="55" type="curve" smooth="yes"/>
      <point x="202" y="55"/>
      <point x="143" y="77"/>
      <point x="84" y="120" type="curve"/>
      <point x="45" y="65" type="line"/>
      <point x="107" y="15"/>
      <point x="187" y="-12"/>
      <point x="259" y="-12" type="curve" smooth="yes"/>
    </contour>
    <contour>
      <point x="251" y="517" type="move" name="top"/>
    </contour>
    <contour>
      <point x="248" y="0" type="move" name="bottom"/>
    </contour>
  </outline>
</glyph>
<glyph name="u" format="1">
  <advance width="592"/>
  <unicode hex="0075"/>
  <outline>
    <component base="n" xOffset="592" yOffset="517" xScale="-1" yScale="-1"/>
    <contour>
      <point x="295" y="517" type="move" name="top"/>
    </contour>
  </outline>
</glyph>
<glyph name="x" format="1">
  <advance width="551"/>
  <unicode hex="0078"/>
  <outline>
    <contour>
      <point x="519" y="0" type="line"/>
      <point x="128" y="517" type="line"/>
      <point x="40" y="517" type="line"/>
      <point x="431" y="0" type="line"/>
    </contour>
    <contour>
      <point x="120" y="0" type="line"/>
      <point x="511" y="517" type="line"/>
      <point x="423" y="517" type="line"/>
      <point x="32" y="0" type="line"/>
    </contour>
  </outline>
</glyph>
<glyph name="asciitilde" format="1">
  <advance width="445"/>
  <unicode hex="007E"/>
  <outline>
    <component base="tilde" xOffset="-3" yOffset="-275"/>
    <contour>
      <point x="223" y="704" type="move" name="top"/>
    </contour>
    <contour>
      <point x="223" y="517" type="move" name="_top"/>
    </contour>
  </outline>
</glyph>
<glyph name="cent" format="1">
  <advance width="542"/>
  <unicode hex="00A2"/>
  <outline>
    <contour>
      <point x="342" y="-74" type="line"/>
      <point x="342" y="13" type="line"/>
      <point x="342" y="33" type="line"/>
      <point x="342" y="484" type="line"/>
      <point x="342" y="504" type="line"/>
      <point x="342" y="589" type="line"/>
      <point x="264" y="589" type="line"/>
      <point x="264" y="504" type="line"/>
      <point x="264" y="484" type="line"/>
      <point x="264" y="33" type="line"/>
      <point x="264" y="13" type="line"/>
      <point x="264" y="-74" type="line"/>
    </contour>
    <component base="c"/>
  </outline>
</glyph>
<glyph name="dieresis" format="1">
  <advance width="410"/>
  <unicode hex="00A8"/>
  <outline>
    <contour>
      <point x="134" y="597"/>
      <point x="155" y="618"/>
      <point x="155" y="643" type="curve" smooth="yes"/>
      <point x="155" y="667"/>
      <point x="134" y="689"/>
      <point x="109" y="689" type="curve" smooth="yes"/>
      <point x="83" y="689"/>
      <point x="63" y="667"/>
      <point x="63" y="643" type="curve" smooth="yes"/>
      <point x="63" y="618"/>
      <point x="83" y="597"/>
      <point x="109" y="597" type="curve" smooth="yes"/>
    </contour>
    <contour>
      <point x="326" y="597"/>
      <point x="347" y="618"/>
      <point x="347" y="643" type="curve" smooth="yes"/>
      <point x="347" y="667"/>
      <point x="326" y="689"/>
      <point x="301" y="689" type="curve" smooth="yes"/>
      <point x="275" y="689"/>
      <point x="255" y="667"/>
      <point x="255" y="643" type="curve" smooth="yes"/>
      <point x="255" y="618"/>
      <point x="275" y="597"/>
      <point x="301" y="597" type="curve" smooth="yes"/>
    </contour>
    <contour>
      <point x="205" y="704" type="move" name="top"/>
    </contour>
    <contour>
      <point x="205" y="517" type="move" name="_top"/>
    </contour>
  </outline>
</glyph>
<glyph name="acute" format="1">
  <advance width="326"/>
  <unicode hex="00B4"/>
  <outline>
    <contour>
      <point x="121" y="576" type="line"/>
      <point x="263" y="702" type="line"/>
      <point x="184" y="720" type="line"/>
      <point x="63" y="576" type="line"/>
    </contour>
    <contour>
      <point x="143" y="704" type="move" name="top"/>
    </contour>
    <contour>
      <point x="143" y="517" type="move" name="_top"/>
    </contour>
  </outline>
</glyph>
<glyph name="multiply" format="1">
  <advance width="541"/>
  <unicode hex="00D7"/>
  <outline>
    <contour>
      <point x="459" y="470" type="line"/>
      <point x="407" y="523" type="line"/>
      <point x="82" y="198" type="line"/>
      <point x="135" y="146" type="line"/>
    </contour>
    <contour>
      <point x="459" y="199" type="line"/>
      <point x="135" y="523" type="line"/>
      <point x="82" y="470" type="line"/>
      <point x="406" y="146" type="line"/>
    </contour>
  </outline>
</glyph>
<glyph name="germandbls" format="1">
  <advance width="576"/>
  <unicode hex="00DF"/>
  <outline>
    <contour>
      <point x="162" y="0" type="line"/>
      <point x="162" y="513" type="line" smooth="yes"/>
      <point x="162" y="585"/>
      <point x="216" y="636"/>
      <point x="292" y="636" type="curve" smooth="yes"/>
      <point x="368" y="636"/>
      <point x="422" y="586"/>
      <point x="422" y="516" type="curve" smooth="yes"/>
      <point x="422" y="452"/>
      <point x="368" y="396"/>
      <point x="292" y="396" type="curve" smooth="yes"/>
      <point x="237" y="396" type="line"/>
      <point x="237" y="325" type="line"/>
      <point x="304" y="325" type="line" smooth="yes"/>
      <point x="389" y="325"/>
      <point x="449" y="272"/>
      <point x="449" y="198" type="curve" smooth="yes"/>
      <point x="449" y="124"/>
      <point x="389" y="71"/>
      <point x="304" y="71" type="curve" smooth="yes"/>
      <point x="237" y="71" type="line"/>
      <point x="237" y="0" type="line"/>
      <point x="324" y="0" type="line" smooth="yes"/>
      <point x="443" y="0"/>
      <point x="528" y="78"/>
      <point x="528" y="188" type="curve" smooth="yes"/>
      <point x="528" y="263"/>
      <point x="482" y="325"/>
      <point x="403" y="365" type="curve"/>
      <point x="465" y="401"/>
      <point x="501" y="453"/>
      <point x="501" y="526" type="curve" smooth="yes"/>
      <point x="501" y="632"/>
      <point x="415" y="707"/>
      <point x="293" y="707" type="curve" smooth="yes"/>
      <point x="171" y="707"/>
      <point x="84" y="632"/>
      <point x="84" y="526" type="curve" smooth="yes"/>
      <point x="84" y="0" type="line"/>
    </contour>
  </outline>
</glyph>
<glyph name="divide" format="1">
  <advance width="593"/>
  <unicode hex="00F7"/>
  <outline>
    <contour>
      <point x="526" y="297" type="line"/>
      <point x="526" y="371" type="line"/>
      <point x="67" y="371" type="line"/>
      <point x="67" y="297" type="line"/>
    </contour>
    <contour>
      <point x="327" y="118"/>
      <point x="351" y="143"/>
      <point x="351" y="173" type="curve" smooth="yes"/>
      <point x="351" y="201"/>
      <point x="327" y="226"/>
      <point x="298" y="226" type="curve" smooth="yes"/>
      <point x="267" y="226"/>
      <point x="243" y="201"/>
      <point x="243" y="173" type="curve" smooth="yes"/>
      <point x="243" y="143"/>
      <point x="267" y="118"/>
      <point x="298" y="118" type="curve" smooth="yes"/>
    </contour>
    <contour>
      <point x="327" y="442"/>
      <point x="351" y="467"/>
      <point x="351" y="497" type="curve" smooth="yes"/>
      <point x="351" y="525"/>
      <point x="327" y="550"/>
      <point x="298" y="550" type="curve" smooth="yes"/>
      <point x="267" y="550"/>
      <point x="243" y="525"/>
      <point x="243" y="497" type="curve" smooth="yes"/>
      <point x="243" y="467"/>
      <point x="267" y="442"/>
      <point x="298" y="442" type="curve" smooth="yes"/>
    </contour>
  </outline>
</glyph>
<glyph name="oslash" format="1">
  <advance width="631"/>
  <unicode hex="00F8"/>
  <outline>
    <contour>
      <point x="139" y="0" type="line"/>
      <point x="580" y="517" type="line"/>
      <point x="495" y="517" type="line"/>
      <point x="54" y="0" type="line"/>
    </contour>
    <component base="o"/>
  </outline>
</glyph>
<glyph name="thorn" format="1">
  <advance width="638"/>
  <unicode hex="00FE"/>
  <outline>
    <contour>
      <point x="158" y="-172" type="line"/>
      <point x="158" y="699" type="line"/>
      <point x="83" y="699" type="line"/>
      <point x="83" y="-172" type="line"/>
    </contour>
    <component base="lowercase_loop" xOffset="30"/>
  </outline>
</glyph>
<glyph name="dcaron" format="1">
  <advance width="817"/>
  <unicode hex="010F"/>
  <outline>
    <component base="d"/>
    <component base="comma" xOffset="553" yOffset="603"/>
    <contour>
      <point x="143" y="704" type="move" name="top"/>
    </contour>
    <contour>
      <point x="143" y="517" type="move" name="_top"/>
    </contour>
  </outline>
</glyph>
<glyph name="jdotless" format="1">
  <advance width="225"/>
  <unicode hex="0237"/>
  <outline>
    <contour>
      <point x="98" y="-178"/>
      <point x="150" y="-123"/>
      <point x="150" y="-46" type="curve" smooth="yes"/>
      <point x="150" y="517" type="line"/>
      <point x="75" y="517" type="line"/>
      <point x="75" y="-46" type="line" smooth="yes"/>
      <point x="75" y="-84"/>
      <point x="52" y="-111"/>
      <point x="19" y="-111" type="curve" smooth="yes"/>
      <point x="-2" y="-111"/>
      <point x="-29" y="-106"/>
      <point x="-45" y="-100" type="curve"/>
      <point x="-57" y="-162" type="line"/>
      <point x="-37" y="-171"/>
      <point x="-4" y="-178"/>
      <point x="24" y="-178" type="curve" smooth="yes"/>
    </contour>
  </outline>
</glyph>
<glyph name="circumflex" format="1">
  <advance width="398"/>
  <unicode hex="02C6"/>
  <outline>
    <contour>
      <point x="120" y="576" type="line"/>
      <point x="198" y="662" type="line"/>
      <point x="277" y="576" type="line"/>
      <point x="335" y="576" type="line"/>
      <point x="233" y="713" type="line"/>
      <point x="163" y="713" type="line"/>
      <point x="63" y="576" type="line"/>
    </contour>
    <contour>
      <point x="198" y="704" type="move" name="top"/>
    </contour>
    <contour>
      <point x="198" y="517" type="move" name="_top"/>
    </contour>
  </outline>
</glyph>
<glyph name="breve" format="1">
  <advance width="418"/>
  <unicode hex="02D8"/>
  <outline>
    <contour>
      <point x="262" y="589"/>
      <point x="315" y="609"/>
      <point x="355" y="649" type="curve"/>
      <point x="308" y="696" type="line"/>
      <point x="281" y="670"/>
      <point x="244" y="654"/>
      <point x="209" y="654" type="curve" smooth="yes"/>
      <point x="174" y="654"/>
      <point x="137" y="670"/>
      <point x="110" y="696" type="curve"/>
      <point x="63" y="649" type="line"/>
      <point x="104" y="609"/>
      <point x="156" y="589"/>
      <point x="209" y="589" type="curve" smooth="yes"/>
    </contour>
    <contour>
      <point x="209" y="704" type="move" name="top"/>
    </contour>
    <contour>
      <point x="209" y="517" type="move" name="_top"/>
    </contour>
  </outline>
</glyph>
<glyph name="ring" format="1">
  <advance width="332"/>
  <unicode hex="02DA"/>
  <outline>
    <contour>
      <point x="223" y="589"/>
      <point x="269" y="635"/>
      <point x="269" y="692" type="curve" smooth="yes"/>
      <point x="269" y="749"/>
      <point x="223" y="795"/>
      <point x="166" y="795" type="curve" smooth="yes"/>
      <point x="109" y="795"/>
      <point x="63" y="749"/>
      <point x="63" y="692" type="curve" smooth="yes"/>
      <point x="63" y="635"/>
      <point x="109" y="589"/>
      <point x="166" y="589" type="curve" smooth="yes"/>
    </contour>
    <contour>
      <point x="134" y="633"/>
      <point x="107" y="660"/>
      <point x="107" y="692" type="curve" smooth="yes"/>
      <point x="107" y="724"/>
      <point x="134" y="751"/>
      <point x="166" y="751" type="curve" smooth="yes"/>
      <point x="198" y="751"/>
      <point x="225" y="724"/>
      <point x="225" y="692" type="curve" smooth="yes"/>
      <point x="225" y="660"/>
      <point x="198" y="633"/>
      <point x="166" y="633" type="curve" smooth="yes"/>
    </contour>
    <contour>
      <point x="166" y="704" type="move" name="top"/>
    </contour>
    <contour>
      <point x="166" y="517" type="move" name="_top"/>
    </contour>
  </outline>
</glyph>
<glyph name="ogonek" format="1">
  <advance width="319"/>
  <unicode hex="02DB"/>
  <outline>
    <contour>
      <point x="204" y="-173"/>
      <point x="233" y="-163"/>
      <point x="256" y="-144" type="curve"/>
      <point x="224" y="-95" type="line"/>
      <point x="214" y="-106"/>
      <point x="198" y="-114"/>
      <point x="177" y="-114" type="curve" smooth="yes"/>
      <point x="140" y="-114"/>
      <point x="119" y="-92"/>
      <point x="119" y="-57" type="curve" smooth="yes"/>
      <point x="119" y="-24"/>
      <point x="143" y="0"/>
      <point x="177" y="0" type="curve"/>
      <point x="116" y="19" type="line"/>
      <point x="87" y="7"/>
      <point x="63" y="-27"/>
      <point x="63" y="-66" type="curve" smooth="yes"/>
      <point x="63" y="-133"/>
      <point x="108" y="-173"/>
      <point x="172" y="-173" type="curve" smooth="yes"/>
    </contour>
    <contour>
      <point x="177" y="0" type="move" name="_bottom"/>
    </contour>
  </outline>
</glyph>
<glyph name="emdash" format="1">
  <advance width="882"/>
  <unicode hex="2014"/>
  <outline>
    <contour>
      <point x="826" y="236" type="line"/>
      <point x="826" y="307" type="line"/>
      <point x="56" y="307" type="line"/>
      <point x="56" y="236" type="line"/>
    </contour>
  </outline>
</glyph>
<glyph name="bullet" format="1">
  <advance width="418"/>
  <unicode hex="2022"/>
  <outline>
    <contour>
      <point x="275" y="178"/>
      <point x="329" y="232"/>
      <point x="329" y="298" type="curve" smooth="yes"/>
      <point x="329" y="363"/>
      <point x="275" y="417"/>
      <point x="210" y="417" type="curve" smooth="yes"/>
      <point x="144" y="417"/>
      <point x="90" y="363"/>
      <point x="90" y="298" type="curve" smooth="yes"/>
      <point x="90" y="232"/>
      <point x="144" y="178"/>
      <point x="210" y="178" type="curve" smooth="yes"/>
    </contour>
  </outline>
</glyph>
<glyph name="a.001" format="1">
  <advance width="638"/>
  <outline>
    <contour>
      <point x="555" y="1" type="line"/>
      <point x="555" y="517" type="line"/>
      <point x="480" y="517" type="line"/>
      <point x="480" y="1" type="line"/>
    </contour>
    <component base="lowercase_loop" xOffset="608" xScale="-1"/>
  </outline>
</glyph>
<glyph name="j.001" format="1">
  <advance width="225"/>
  <outline>
    <contour>
      <point x="98" y="-178"/>
      <point x="150" y="-123"/>
      <point x="150" y="-46" type="curve" smooth="yes"/>
      <point x="150" y="517" type="line"/>
      <point x="75" y="517" type="line"/>
      <point x="75" y="-46" type="line" smooth="yes"/>
      <point x="75" y="-84"/>
      <point x="52" y="-111"/>
      <point x="19" y="-111" type="curve" smooth="yes"/>
      <point x="-2" y="-111"/>
      <point x="-29" y="-106"/>
      <point x="-45" y="-100" type="curve"/>
      <point x="-57" y="-162" type="line"/>
      <point x="-37" y="-171"/>
      <point x="-4" y="-178"/>
      <point x="24" y="-178" type="curve" smooth="yes"/>
    </contour>
    <contour>
      <point x="140" y="611"/>
      <point x="162" y="634"/>
      <point x="162" y="661" type="curve" smooth="yes"/>
      <point x="162" y="687"/>
      <point x="140" y="710"/>
      <point x="113" y="710" type="curve" smooth="yes"/>
      <point x="85" y="710"/>
      <point x="63" y="687"/>
      <point x="63" y="661" type="curve" smooth="yes"/>
      <point x="63" y="634"/>
      <point x="85" y="611"/>
      <point x="113" y="611" type="curve" smooth="yes"/>
    </contour>
  </outline>
</glyph>
<glyph name="lowercase_loop" format="1">
  <advance width="608"/>
  <outline>
    <contour>
      <point x="452" y="-12"/>
      <point x="554" y="100"/>
      <point x="554" y="259" type="curve" smooth="yes"/>
      <point x="554" y="417"/>
      <point x="452" y="529"/>
      <point x="316" y="529" type="curve" smooth="yes"/>
      <point x="179" y="529"/>
      <point x="89" y="417"/>
      <point x="89" y="259" type="curve" smooth="yes"/>
      <point x="89" y="100"/>
      <point x="179" y="-12"/>
      <point x="316" y="-12" type="curve" smooth="yes"/>
    </contour>
    <contour>
      <point x="200" y="55"/>
      <point x="128" y="140"/>
      <point x="128" y="259" type="curve" smooth="yes"/>
      <point x="128" y="378"/>
      <point x="200" y="462"/>
      <point x="302" y="462" type="curve" smooth="yes"/>
      <point x="403" y="462"/>
      <point x="475" y="378"/>
      <point x="475" y="259" type="curve" smooth="yes"/>
      <point x="475" y="140"/>
      <point x="403" y="55"/>
      <point x="302" y="55" type="curve" smooth="yes"/>
    </contour>
  </outline>
</glyph>
